<?xml version="1.0" encoding="UTF-8"?>
<svg version="1.1" xmlns="http://www.w3.org/2000/svg" width="192" height="192">
<path d="M0 0 C13.54744293 10.41638739 22.98972244 24.94232936 25.2734375 42.11328125 C26.48682521 59.29962522 21.84303901 73.19623376 11.7109375 87.05078125 C5.47923552 95.84685617 2.7300871 104.40023448 2.08081055 115.06274414 C1.69435475 120.2229941 0.53536855 124.03835048 -2.7265625 128.11328125 C-8.8766766 132.72690429 -14.27411784 132.68585974 -21.79296875 132.609375 C-22.94522446 132.61083023 -24.09748016 132.61228546 -25.28465271 132.61378479 C-27.71282488 132.61212964 -30.14100796 132.60061162 -32.5690918 132.57983398 C-36.28023923 132.55085016 -39.98995959 132.55924038 -43.70117188 132.57226562 C-46.06511109 132.56602858 -48.42904581 132.55763792 -50.79296875 132.546875 C-52.45254356 132.55127846 -52.45254356 132.55127846 -54.14564514 132.55577087 C-59.7221566 132.48763037 -63.96264446 132.35662453 -68.7265625 129.11328125 C-72.71715303 124.69127553 -73.80062894 122.00733903 -74.32104492 116.09594727 C-75.39942254 104.12511045 -78.08153157 95.28418628 -84.78515625 85.20703125 C-87.0852125 81.54175047 -89.08692808 77.78487008 -91.0390625 73.92578125 C-91.37647461 73.27262939 -91.71388672 72.61947754 -92.06152344 71.9465332 C-95.65835388 64.72650526 -97.10418028 57.91090836 -97.0390625 49.86328125 C-97.03342285 49.12311768 -97.0277832 48.3829541 -97.02197266 47.62036133 C-96.65762195 30.9738628 -89.3724571 16.89530743 -77.7890625 5.1484375 C-56.3089272 -14.64273555 -23.91164672 -16.54631141 0 0 Z " fill="#FFCC07" transform="translate(131.7265625,10.88671875)"/>
<path d="M0 0 C1.78227493 -0.01925285 1.78227493 -0.01925285 3.60055542 -0.03889465 C4.89011139 -0.04628159 6.17966736 -0.05366852 7.50830078 -0.0612793 C8.82774689 -0.06935104 10.14719299 -0.07742279 11.50662231 -0.08573914 C14.30259066 -0.10076493 17.0985336 -0.11060385 19.89453125 -0.11816406 C23.4748431 -0.12923259 27.05453411 -0.16363772 30.63462639 -0.20333576 C33.38844964 -0.22948317 36.14212447 -0.2378541 38.89606094 -0.24144554 C40.85705662 -0.24868244 42.8179509 -0.27512844 44.77877808 -0.30183411 C46.57050949 -0.29744576 46.57050949 -0.29744576 48.3984375 -0.29296875 C49.4494162 -0.29883499 50.5003949 -0.30470123 51.58322144 -0.31074524 C55.02892556 0.30141966 56.17873537 1.47306726 58.32861328 4.17700195 C59.26611328 6.61450195 59.26611328 6.61450195 59.32861328 9.17700195 C57.707057 12.66334797 56.56408036 14.0200239 53.32861328 16.17700195 C50.79959106 16.44442749 50.79959106 16.44442749 47.74316406 16.4675293 C46.5983255 16.480289 45.45348694 16.49304871 44.2739563 16.50619507 C43.03644623 16.50842072 41.79893616 16.51064636 40.52392578 16.51293945 C38.61702469 16.52292465 38.61702469 16.52292465 36.67160034 16.53311157 C33.97981792 16.5432465 31.28843926 16.54879252 28.59667969 16.54760742 C25.15431782 16.54740434 21.71278262 16.57469314 18.27061653 16.60915184 C14.98008408 16.6367945 11.68955858 16.63557084 8.39892578 16.63793945 C6.54873337 16.659496 6.54873337 16.659496 4.66116333 16.68148804 C3.51002045 16.67533478 2.35887756 16.66918152 1.17285156 16.6628418 C-0.34246658 16.66711685 -0.34246658 16.66711685 -1.88839722 16.67147827 C-5.44293517 16.03991468 -7.11527389 14.68192081 -9.67138672 12.17700195 C-10.92748687 8.48720775 -11.01491485 6.91313366 -9.35888672 3.36450195 C-6.56137679 -0.2618998 -4.39670812 0.04124511 0 0 Z " fill="#FFCD06" transform="translate(71.67138671875,151.822998046875)"/>
<path d="M0 0 C1.3756311 -0.00574036 1.3756311 -0.00574036 2.77905273 -0.01159668 C4.71566873 -0.01431549 6.65232147 -0.00695646 8.58886719 0.00976562 C11.55226553 0.03117606 14.51323951 0.00996331 17.4765625 -0.015625 C19.35938035 -0.01298172 21.24219669 -0.00785673 23.125 0 C24.01050537 -0.00809692 24.89601074 -0.01619385 25.80834961 -0.02453613 C31.94360746 0.06892905 31.94360746 0.06892905 35.11694336 2.43945312 C36.67095586 4.68819136 37.1302914 5.82205073 37.125 8.53125 C37.14691406 9.19125 37.16882813 9.85125 37.19140625 10.53125 C36.17354999 13.76815935 34.40475043 14.73957088 31.5625 16.53125 C28.53880056 17.11230124 25.57189612 17.09234297 22.5 17.0625 C21.63109131 17.0663269 20.76218262 17.07015381 19.86694336 17.07409668 C18.03465614 17.07681179 16.2023299 17.06947867 14.37011719 17.05273438 C11.57138353 17.03131798 8.77521667 17.05254855 5.9765625 17.078125 C4.19270269 17.07548165 2.40884447 17.07035652 0.625 17.0625 C-0.20845947 17.07059692 -1.04191895 17.07869385 -1.90063477 17.08703613 C-5.94050332 17.02209115 -7.96621234 16.82833721 -11.46459961 14.62304688 C-13.4375 12.53125 -13.4375 12.53125 -14.06640625 10.53125 C-14.04449219 9.87125 -14.02257812 9.21125 -14 8.53125 C-14.00128906 7.87125 -14.00257812 7.21125 -14.00390625 6.53125 C-12.00170533 -0.5385905 -6.12059898 -0.05596581 0 0 Z " fill="#FFCD07" transform="translate(84.4375,175.46875)"/>
</svg>
